<svg xmlns="http://www.w3.org/2000/svg" viewBox="0 0 239.76 177.23"><defs><style>.cls-1{fill:#96c66e;}.cls-2{fill:#2c1c46;}.cls-3{fill:#fff;}</style></defs><g id="Ebene_2" data-name="Ebene 2"><g id="Ebene_1-2" data-name="Ebene 1"><polygon class="cls-1" points="239.76 87.99 196.54 65.49 196.54 110.48 239.76 87.99"/><rect class="cls-1" y="62.92" width="19.52" height="49.73"/><rect class="cls-2" x="19.41" width="177.23" height="177.23"/><path class="cls-3" d="M39.18,75.81v-34h3.5v14.9H60.23V41.81h3.5v34h-3.5V60H42.68V75.81Z"/><path class="cls-3" d="M73.63,75.81v-34h21.3v3.25H77.13v11.8h15.5v3.25H77.13V72.56h17.8v3.25Z"/><path class="cls-3" d="M103.08,75.81v-34h3.5V72.56H122v3.25Z"/><path class="cls-3" d="M128,75.81v-34h3.5V72.56h15.4v3.25Z"/><path class="cls-3" d="M175.1,71.84q-3.42,4.72-10.67,4.72t-10.68-4.72q-3.42-4.73-3.42-13t3.42-13q3.42-4.73,10.68-4.73t10.67,4.73q3.42,4.73,3.43,13T175.1,71.84Zm-10.67,1.47a10.44,10.44,0,0,0,7.27-2.55,8.85,8.85,0,0,0,2.83-6.9V53.76a8.8,8.8,0,0,0-2.85-6.87,11.48,11.48,0,0,0-14.5,0,8.8,8.8,0,0,0-2.85,6.87v10.1a8.82,8.82,0,0,0,2.85,6.88A10.42,10.42,0,0,0,164.43,73.31Z"/><path class="cls-3" d="M56,131.81v-34h10.5q7.29,0,10.7,4.13t3.4,12.87q0,8.76-3.4,12.88t-10.7,4.12Zm3.5-3.25h6.85q4.85,0,7.55-2.3a8,8,0,0,0,2.7-6.45v-10a8.07,8.07,0,0,0-2.68-6.45q-2.67-2.3-7.52-2.3h-6.9Z"/><path class="cls-3" d="M84.93,131.81l11.75-34h4.25l11.75,34h-3.75l-3-8.85H91.63l-3,8.85ZM92.63,120h12.3l-6-18.25h-.2Z"/><path class="cls-3" d="M123,131.81V101.06H112.88V97.81h23.8v3.25H126.53v30.75Z"/><path class="cls-3" d="M136.88,131.81l11.75-34h4.25l11.75,34h-3.75l-3-8.85h-14.3l-3,8.85Zm7.7-11.85h12.3l-6-18.25h-.2Z"/></g></g></svg>