<svg fill="none" height="15" viewBox="0 0 18 15" width="18" xmlns="http://www.w3.org/2000/svg"><path d="m5.99982 10.5c.55228 0 1-.4477 1-1 0-.55229-.44772-1-1-1-.55229 0-1 .44771-1 1 0 .5523.44771 1 1 1zm4-1c0 .5523-.44772 1-1 1-.55229 0-1-.4477-1-1 0-.55229.44771-1 1-1 .55228 0 1 .44771 1 1zm1.99998 1c.5523 0 1-.4477 1-1 0-.55229-.4477-1-1-1s-1 .44771-1 1c0 .5523.4477 1 1 1zm-9-9.707107c.18754-.187536.44189-.292893.70711-.292893h10.58579c.2652 0 .5196.105356.7071.292893l2.6415 2.641507c.7623.76226.2224 2.0656-.8556 2.0656h-.7859v7c0 1.1046-.8954 2-2 2h-9.99998c-1.10457 0-2-.8954-2-2v-7h-.78593c-1.077991 0-1.617858-1.30334-.855599-2.0656zm12 11.707107v-7h-11.99998v7c0 .5523.44771 1 1 1h9.99998c.5523 0 1-.4477 1-1zm1.7859-8c.1871 0 .2808-.2262.1485-.35849l-2.6415-2.64151h-10.58579l-2.64151 2.64151c-.132293.13229-.0386.35849.14849.35849z" fill="#000"/></svg>